<?xml version="1.0" encoding="UTF-8" standalone="no"?>
<!-- Created with Inkscape (http://www.inkscape.org/) -->

<svg
   xmlns:dc="http://purl.org/dc/elements/1.1/"
   xmlns:cc="http://creativecommons.org/ns#"
   xmlns:rdf="http://www.w3.org/1999/02/22-rdf-syntax-ns#"
   xmlns:svg="http://www.w3.org/2000/svg"
   xmlns="http://www.w3.org/2000/svg"
   xmlns:xlink="http://www.w3.org/1999/xlink"
   xmlns:sodipodi="http://sodipodi.sourceforge.net/DTD/sodipodi-0.dtd"
   xmlns:inkscape="http://www.inkscape.org/namespaces/inkscape"
   width="906.33801"
   height="312.11472"
   id="svg2"
   version="1.1"
   inkscape:version="0.47 r22583"
   sodipodi:docname="travel-car.svg">
  <defs
     id="defs4">
    <linearGradient
       inkscape:collect="always"
       id="linearGradient3738">
      <stop
         style="stop-color:#666666;stop-opacity:1"
         offset="0"
         id="stop3740" />
      <stop
         style="stop-color:#88aa00;stop-opacity:1"
         offset="1"
         id="stop3742" />
    </linearGradient>
    <inkscape:perspective
       sodipodi:type="inkscape:persp3d"
       inkscape:vp_x="0 : 526.18109 : 1"
       inkscape:vp_y="0 : 1000 : 0"
       inkscape:vp_z="744.09448 : 526.18109 : 1"
       inkscape:persp3d-origin="372.04724 : 350.78739 : 1"
       id="perspective10" />
    <inkscape:perspective
       id="perspective2825"
       inkscape:persp3d-origin="0.5 : 0.33333333 : 1"
       inkscape:vp_z="1 : 0.5 : 1"
       inkscape:vp_y="0 : 1000 : 0"
       inkscape:vp_x="0 : 0.5 : 1"
       sodipodi:type="inkscape:persp3d" />
    <filter
       inkscape:collect="always"
       id="filter3683"
       x="-0.0089941807"
       width="1.0179884"
       y="-0.64083534"
       height="2.2816708"
       color-interpolation-filters="sRGB">
      <feGaussianBlur
         inkscape:collect="always"
         stdDeviation="3.0695829"
         id="feGaussianBlur3685" />
    </filter>
    <inkscape:perspective
       id="perspective3697"
       inkscape:persp3d-origin="0.5 : 0.33333333 : 1"
       inkscape:vp_z="1 : 0.5 : 1"
       inkscape:vp_y="0 : 1000 : 0"
       inkscape:vp_x="0 : 0.5 : 1"
       sodipodi:type="inkscape:persp3d" />
    <inkscape:perspective
       id="perspective3721"
       inkscape:persp3d-origin="0.5 : 0.33333333 : 1"
       inkscape:vp_z="1 : 0.5 : 1"
       inkscape:vp_y="0 : 1000 : 0"
       inkscape:vp_x="0 : 0.5 : 1"
       sodipodi:type="inkscape:persp3d" />
    <linearGradient
       inkscape:collect="always"
       xlink:href="#linearGradient3738"
       id="linearGradient3744"
       x1="445.83658"
       y1="411.5657"
       x2="445.83658"
       y2="425.1254"
       gradientUnits="userSpaceOnUse" />
    <linearGradient
       inkscape:collect="always"
       xlink:href="#linearGradient3738"
       id="linearGradient3776"
       gradientUnits="userSpaceOnUse"
       x1="445.83658"
       y1="411.5657"
       x2="445.83658"
       y2="425.1254" />
  </defs>
  <sodipodi:namedview
     id="base"
     pagecolor="#ffffff"
     bordercolor="#666666"
     borderopacity="1.0"
     inkscape:pageopacity="0.0"
     inkscape:pageshadow="2"
     inkscape:zoom="0.34794922"
     inkscape:cx="197.90442"
     inkscape:cy="210.09585"
     inkscape:document-units="px"
     inkscape:current-layer="layer1"
     showgrid="false"
     inkscape:window-width="1280"
     inkscape:window-height="706"
     inkscape:window-x="-8"
     inkscape:window-y="-8"
     inkscape:window-maximized="1" />
  <metadata
     id="metadata7">
    <rdf:RDF>
      <cc:Work
         rdf:about="">
        <dc:format>image/svg+xml</dc:format>
        <dc:type
           rdf:resource="http://purl.org/dc/dcmitype/StillImage" />
        <dc:title />
      </cc:Work>
    </rdf:RDF>
  </metadata>
  <g
     inkscape:label="Layer 1"
     inkscape:groupmode="layer"
     id="layer1"
     transform="translate(-69.912573,-610.36145)"
     style="display:inline">
    <g
       id="g3746">
      <path
         sodipodi:nodetypes="ccccccccc"
         id="rect2844"
         d="m 142.98064,754.90497 790.34521,0 -1.01611,108.26744 -163.03869,8.6369 -435.35517,-3.55637 -149.21743,-13.71744 -15.09139,1.01611 -27.13447,-4.06442 0.50805,-96.58222 z"
         style="fill:#000000;fill-opacity:0.99607843;stroke:none" />
      <g
         transform="translate(-1.0161063,-3.0483189)"
         id="g2881">
        <path
           transform="matrix(9.75,0,0,9.75,-2206.3206,-4348.3011)"
           d="m 259.37693,532.13824 c 0,3.96815 -3.21682,7.18496 -7.18496,7.18496 -3.96814,0 -7.18496,-3.21681 -7.18496,-7.18496 0,-3.96814 3.21682,-7.18495 7.18496,-7.18495 3.96814,0 7.18496,3.21681 7.18496,7.18495 z"
           sodipodi:ry="7.1849566"
           sodipodi:rx="7.1849566"
           sodipodi:cy="532.13824"
           sodipodi:cx="252.19197"
           id="path2848"
           style="fill:#1a1a1a;fill-opacity:0.99607843;stroke:none"
           sodipodi:type="arc" />
        <path
           sodipodi:type="arc"
           style="fill:#800000;fill-opacity:0.99607843;stroke:none"
           id="path2846"
           sodipodi:cx="252.19197"
           sodipodi:cy="532.13824"
           sodipodi:rx="7.1849566"
           sodipodi:ry="7.1849566"
           d="m 259.37693,532.13824 c 0,3.96815 -3.21682,7.18496 -7.18496,7.18496 -3.96814,0 -7.18496,-3.21681 -7.18496,-7.18496 0,-3.96814 3.21682,-7.18495 7.18496,-7.18495 3.96814,0 7.18496,3.21681 7.18496,7.18495 z"
           transform="matrix(7.6,0,0,7.6,-1664.1078,-3204.2039)" />
        <path
           style="fill:#999999;fill-opacity:0.99607843;stroke:none"
           d="m 252.5625,483.625 c -26.58655,0 -48.15625,21.5697 -48.15625,48.15625 0,26.58655 21.5697,48.125 48.15625,48.125 26.58655,0 48.125,-21.53845 48.125,-48.125 0,-26.58655 -21.53845,-48.15625 -48.125,-48.15625 z m 7.1875,32.71875 c 1.88487,0 3.40625,1.52138 3.40625,3.40625 0,1.88487 -1.52138,3.40625 -3.40625,3.40625 -1.88487,0 -3.4375,-1.52138 -3.4375,-3.40625 0,-1.88487 1.55263,-3.40625 3.4375,-3.40625 z m -15.46875,0.34375 c 1.88487,0 3.40625,1.52138 3.40625,3.40625 0,1.88487 -1.52138,3.4375 -3.40625,3.4375 -1.88487,0 -3.40625,-1.55263 -3.40625,-3.4375 0,-1.88487 1.52138,-3.40625 3.40625,-3.40625 z m 8.28125,7.90625 c 3.96814,0 7.1875,3.21936 7.1875,7.1875 0,3.96814 -3.21936,7.1875 -7.1875,7.1875 -3.96814,0 -7.1875,-3.21936 -7.1875,-7.1875 0,-3.96814 3.21936,-7.1875 7.1875,-7.1875 z m 13.46875,6.46875 c 1.88487,0 3.40625,1.52138 3.40625,3.40625 0,1.88487 -1.52138,3.40625 -3.40625,3.40625 -1.88487,0 -3.40625,-1.52138 -3.40625,-3.40625 0,-1.88487 1.52138,-3.40625 3.40625,-3.40625 z M 240.875,532.5 c 1.88487,0 3.40625,1.52138 3.40625,3.40625 0,1.88487 -1.52138,3.40625 -3.40625,3.40625 -1.88487,0 -3.40625,-1.52138 -3.40625,-3.40625 0,-1.88487 1.52138,-3.40625 3.40625,-3.40625 z m 12.21875,8.625 c 1.88487,0 3.40625,1.52138 3.40625,3.40625 0,1.88487 -1.52138,3.40625 -3.40625,3.40625 -1.88487,0 -3.40625,-1.52138 -3.40625,-3.40625 0,-1.88487 1.52138,-3.40625 3.40625,-3.40625 z"
           transform="translate(0,308.2677)"
           id="path2873" />
      </g>
      <path
         sodipodi:nodetypes="cccccsccccccsssccscssccscccsccccc"
         id="rect2869"
         transform="translate(0,308.2677)"
         d="m 435.90625,302.09375 c -113.76961,0.32688 -134.31422,16.79 -207.28125,46.75 -14.75045,6.03843 -35.95393,16.14828 -46.78125,21.40625 l -1.03125,-0.0312 -93.15625,8.875 c 0,0 -3.099255,25.87958 -3.9375,38.8125 -0.838245,12.93288 -1.09375,38.7812 -1.09375,38.7812 l -11.84375,5.75 7.71875,37.375 -2.59375,6.46875 10.3125,25.125 82.8125,15.375 c -0.005,-0.39842 -0.0312,-0.78785 -0.0312,-1.1875 0,-49.80018 36.84602,-90.1875 82.28125,-90.1875 45.43523,0 82.25,40.38732 82.25,90.1875 0,4.29101 -0.28365,8.4938 -0.8125,12.625 l 4.625,0.3125 c 0,0 197.92458,-0.0625 315.9375,3.5 34.25973,1.03422 75.14286,0.43686 115.90625,-0.9375 -2.3263,-11.45117 -2.62301,-23.659 -0.46875,-36.0625 8.52181,-49.06564 51.73493,-82.52488 96.5,-74.75 44.54394,7.73647 73.85765,53.39446 65.75,102.1875 22.64834,-1.57957 36.84375,-2.71875 36.84375,-2.71875 0,0 -3.05555,-7.52057 -2.71875,-23.3125 0.33679,-15.79194 11.24605,-24.77347 11.15625,-39.5625 -0.0922,-14.80764 -18.84375,-16.53125 -18.84375,-16.53125 l 1.78125,-28.75 c 0,0 -4.09578,-13.1903 -38.84375,-21.59375 -34.74796,-8.40345 -169.625,-28.8125 -169.625,-28.8125 l -22,-0.8125 c -21.11645,-12.32911 -60.17718,-35.17466 -72.8125,-41.53125 -47.30305,-27.41248 -71.64115,-44.52623 -220,-46.75 l -5e-5,0 z"
         style="fill:#88aa00;fill-opacity:0.99607843;stroke:none" />
      <path
         transform="matrix(1,0,0,1.875,0,-211.68948)"
         d="m 949.85123,591.77338 c 0,3.17451 -183.35843,5.74796 -409.54251,5.74796 -226.18409,0 -409.54252,-2.57345 -409.54252,-5.74796 0,-3.17452 183.35843,-5.74797 409.54252,-5.74797 226.18408,0 409.54251,2.57345 409.54251,5.74797 z"
         sodipodi:ry="5.7479653"
         sodipodi:rx="409.54251"
         sodipodi:cy="591.77338"
         sodipodi:cx="540.30872"
         id="path2872"
         style="fill:#000000;fill-opacity:0.99607843;stroke:none;filter:url(#filter3683)"
         sodipodi:type="arc" />
      <path
         sodipodi:nodetypes="ccccs"
         id="path2831"
         transform="translate(0,308.2677)"
         d="m 477.1875,311 c -93.88239,-5.44683 -177.6496,24.35766 -231.5625,58.28125 l 13.375,26.875 433.59375,6.5 C 656.48842,358.4975 576.98415,316.78997 477.1875,311 z"
         style="fill:#4d4d4d;fill-opacity:0.99607843;stroke:none" />
      <rect
         transform="matrix(0.9909117,-0.13451394,0.20185368,0.97941569,0,0)"
         inkscape:transform-center-y="41.953533"
         inkscape:transform-center-x="-7.7086618"
         y="672.242"
         x="274.26071"
         height="85.417686"
         width="1.8411968"
         id="rect2840"
         style="opacity:0.4;fill:#88aa00;fill-opacity:0.99607843;stroke:none" />
      <rect
         ry="7"
         rx="7"
         transform="translate(0,308.2677)"
         y="424.36392"
         x="156.63205"
         height="28.739826"
         width="40.95425"
         id="rect2864"
         style="opacity:0.4;fill:#88aa00;fill-opacity:0.99607843;stroke:none" />
      <path
         transform="translate(0,308.2677)"
         id="path2882"
         d="m 952.78125,439.3125 c -8.63767,0.23681 -23.00298,3.58644 -25.25,9.03125 -3.03062,7.3436 16.41079,23.25586 22.75,23.03125 6.13366,-0.21733 6.68145,-9.11754 7.875,-13.9375 l 1.03125,-17.03125 c -0.10934,-0.0972 -0.22073,-0.16558 -0.34375,-0.25 -0.94615,-0.6493 -3.18328,-0.92269 -6.0625,-0.84375 z"
         style="fill:#cccccc;fill-opacity:0.99607843;stroke:none" />
      <path
         id="path2890"
         transform="translate(0,308.2677)"
         d="m 86.625,388.03125 c -0.983313,8.71022 -2.372834,21.64516 -2.90625,29.875 -0.61149,9.43442 -0.912941,25.5552 -1.03125,33.6875 13.072655,-1.22697 24.41374,-3.8458 27.625,-7.25 6.53455,-6.92718 -9.45219,-38.87239 -23.6875,-56.3125 z"
         style="fill:#cccccc;fill-opacity:0.99607843;stroke:none" />
      <path
         id="path2896"
         transform="translate(0,308.2677)"
         d="m 83.59375,419.96875 c -0.53157,9.57702 -0.795943,24.04273 -0.90625,31.625 13.072655,-1.22697 24.41374,-3.8458 27.625,-7.25 3.2821,-3.47931 0.88039,-13.28084 -4.125,-24.375 l -22.59375,0 z"
         style="fill:#aa0000;fill-opacity:0.99607843;stroke:none" />
      <path
         sodipodi:nodetypes="ccczc"
         transform="translate(0,308.2677)"
         id="path2917"
         d="m 692.6705,403.76002 c 21.17698,21.78145 20.0772,40.59889 20.0772,72.69486 l 0,0 0,0 c 0,29.95157 -6.86346,58.19437 -19.00533,83.03878"
         style="opacity:0.4;fill:none;stroke:#000000;stroke-width:3;stroke-miterlimit:4;stroke-dasharray:none" />
      <path
         sodipodi:nodetypes="csc"
         transform="translate(0,308.2677)"
         id="path2903"
         d="m 465.12167,558.73508 c -4.01596,-4.58149 -7.85483,-9.40041 -11.49617,-14.45277 -32.6027,-45.23629 -47.47375,-109.63554 -28.93281,-146.40035"
         style="opacity:0.4;fill:none;stroke:#000000;stroke-width:3;stroke-miterlimit:4;stroke-dasharray:none" />
      <path
         sodipodi:nodetypes="csccscc"
         transform="translate(0,308.2677)"
         id="path2849"
         d="m 179.20303,370.77436 c 0,0 32.4691,-15.74575 47.8416,-22.57098 15.8069,-7.0181 82.627,-31.61381 82.627,-31.61381 l 0.71849,1.43699 c 0,0 -58.34868,25.98356 -68.97558,30.5977 -10.31297,4.47784 -55.32417,27.60045 -55.32417,27.60045 l -6.88734,-5.45035 z"
         style="fill:#4d4d4d;stroke:none" />
      <path
         sodipodi:nodetypes="csccscsc"
         transform="translate(0,308.2677)"
         id="path2855"
         d="m 740.73291,390.98998 c 0,0 -45.09168,-24.24783 -73.28655,-39.87651 -48.34725,-26.79933 -89.77586,-36.32014 -89.77586,-36.32014 l -3.59248,4.67023 c 0,0 63.22763,29.09907 79.39378,40.23575 16.16615,11.13668 54.60566,39.87651 54.60566,39.87651 0,0 5.46037,0.83978 16.16616,-1.43699 11.44041,-2.43301 15.77079,-7.14885 16.48929,-7.14885 z"
         style="fill:#4d4d4d;stroke:none" />
      <path
         sodipodi:nodetypes="csc"
         transform="translate(0,308.2677)"
         id="path2857"
         d="m 102.38563,412.14949 c 0,0 234.10983,3.83198 350.8055,7.18496 116.69567,3.35298 349.36851,12.93292 349.36851,12.93292"
         style="fill:none;stroke:#000000;stroke-width:1px;stroke-linecap:butt;stroke-linejoin:miter;stroke-opacity:1" />
      <path
         sodipodi:nodetypes="csc"
         transform="translate(0,308.2677)"
         id="path2866"
         d="m 303.18098,468.78276 c 85.75217,2.68383 198.27458,5.15736 214.85438,5.15736 22.99186,0 259.37693,5.74796 259.37693,5.74796"
         style="fill:none;stroke:#000000;stroke-width:1px;stroke-linecap:butt;stroke-linejoin:miter;stroke-opacity:1" />
      <path
         sodipodi:nodetypes="cs"
         transform="translate(0,308.2677)"
         id="path2859"
         d="m 82.627,458.13321 c 0,0 99.8709,5.02947 130.04771,7.18496"
         style="fill:none;stroke:#000000;stroke-width:1px;stroke-linecap:butt;stroke-linejoin:miter;stroke-opacity:1" />
      <path
         sodipodi:nodetypes="csc"
         transform="translate(0,308.2677)"
         id="path2868"
         d="m 70.412573,466.03666 c 0,0 29.447551,3.83988 52.450177,5.02948 20.82094,1.07677 61.07214,2.15548 61.07214,2.15548"
         style="fill:none;stroke:#666666;stroke-width:1px;stroke-linecap:butt;stroke-linejoin:miter;stroke-opacity:1" />
      <path
         sodipodi:nodetypes="csc"
         transform="translate(0,308.2677)"
         id="path2870"
         d="m 317.57508,475.37711 c 0,0 117.11214,2.95843 142.98063,3.59247 29.45823,0.72204 316.13809,5.02948 316.13809,5.02948"
         style="fill:none;stroke:#000000;stroke-width:1px;stroke-linecap:butt;stroke-linejoin:miter;stroke-opacity:1" />
      <g
         transform="translate(599.50271,-5.0805315)"
         id="g2886">
        <path
           sodipodi:type="arc"
           style="fill:#1a1a1a;fill-opacity:0.99607843;stroke:none"
           id="path2888"
           sodipodi:cx="252.19197"
           sodipodi:cy="532.13824"
           sodipodi:rx="7.1849566"
           sodipodi:ry="7.1849566"
           d="m 259.37693,532.13824 c 0,3.96815 -3.21682,7.18496 -7.18496,7.18496 -3.96814,0 -7.18496,-3.21681 -7.18496,-7.18496 0,-3.96814 3.21682,-7.18495 7.18496,-7.18495 3.96814,0 7.18496,3.21681 7.18496,7.18495 z"
           transform="matrix(9.75,0,0,9.75,-2206.3206,-4348.3011)" />
        <path
           transform="matrix(7.6,0,0,7.6,-1664.1078,-3204.2039)"
           d="m 259.37693,532.13824 c 0,3.96815 -3.21682,7.18496 -7.18496,7.18496 -3.96814,0 -7.18496,-3.21681 -7.18496,-7.18496 0,-3.96814 3.21682,-7.18495 7.18496,-7.18495 3.96814,0 7.18496,3.21681 7.18496,7.18495 z"
           sodipodi:ry="7.1849566"
           sodipodi:rx="7.1849566"
           sodipodi:cy="532.13824"
           sodipodi:cx="252.19197"
           id="path2891"
           style="fill:#800000;fill-opacity:0.99607843;stroke:none"
           sodipodi:type="arc" />
        <path
           id="path2893"
           transform="translate(0,308.2677)"
           d="m 252.5625,483.625 c -26.58655,0 -48.15625,21.5697 -48.15625,48.15625 0,26.58655 21.5697,48.125 48.15625,48.125 26.58655,0 48.125,-21.53845 48.125,-48.125 0,-26.58655 -21.53845,-48.15625 -48.125,-48.15625 z m 7.1875,32.71875 c 1.88487,0 3.40625,1.52138 3.40625,3.40625 0,1.88487 -1.52138,3.40625 -3.40625,3.40625 -1.88487,0 -3.4375,-1.52138 -3.4375,-3.40625 0,-1.88487 1.55263,-3.40625 3.4375,-3.40625 z m -15.46875,0.34375 c 1.88487,0 3.40625,1.52138 3.40625,3.40625 0,1.88487 -1.52138,3.4375 -3.40625,3.4375 -1.88487,0 -3.40625,-1.55263 -3.40625,-3.4375 0,-1.88487 1.52138,-3.40625 3.40625,-3.40625 z m 8.28125,7.90625 c 3.96814,0 7.1875,3.21936 7.1875,7.1875 0,3.96814 -3.21936,7.1875 -7.1875,7.1875 -3.96814,0 -7.1875,-3.21936 -7.1875,-7.1875 0,-3.96814 3.21936,-7.1875 7.1875,-7.1875 z m 13.46875,6.46875 c 1.88487,0 3.40625,1.52138 3.40625,3.40625 0,1.88487 -1.52138,3.40625 -3.40625,3.40625 -1.88487,0 -3.40625,-1.52138 -3.40625,-3.40625 0,-1.88487 1.52138,-3.40625 3.40625,-3.40625 z M 240.875,532.5 c 1.88487,0 3.40625,1.52138 3.40625,3.40625 0,1.88487 -1.52138,3.40625 -3.40625,3.40625 -1.88487,0 -3.40625,-1.52138 -3.40625,-3.40625 0,-1.88487 1.52138,-3.40625 3.40625,-3.40625 z m 12.21875,8.625 c 1.88487,0 3.40625,1.52138 3.40625,3.40625 0,1.88487 -1.52138,3.40625 -3.40625,3.40625 -1.88487,0 -3.40625,-1.52138 -3.40625,-3.40625 0,-1.88487 1.52138,-3.40625 3.40625,-3.40625 z"
           style="fill:#999999;fill-opacity:0.99607843;stroke:none" />
      </g>
      <path
         d="m 462.7112,417.53821 c 0,4.16655 -6.99657,7.5442 -15.62728,7.5442 -8.63071,0 -15.62728,-3.37765 -15.62728,-7.5442 0,-4.16655 6.99657,-7.54421 15.62728,-7.54421 8.63071,0 15.62728,3.37766 15.62728,7.54421 z"
         sodipodi:ry="7.5442042"
         sodipodi:rx="15.62728"
         sodipodi:cy="417.53821"
         sodipodi:cx="447.08392"
         id="path3687"
         style="fill:url(#linearGradient3776);fill-opacity:1;stroke:none;display:inline"
         sodipodi:type="arc"
         transform="matrix(0.98850575,0,0,1.1428571,6.9107606,250.41565)" />
      <rect
         ry="4"
         rx="4"
         y="723.38116"
         x="425.1698"
         height="8.2627001"
         width="47.061466"
         id="rect3711"
         style="fill:#668000;fill-opacity:0.99607843;stroke:none;display:inline" />
    </g>
  </g>
</svg>
